<?xml version="1.0" encoding="utf-8" standalone="no"?>
<!DOCTYPE svg PUBLIC "-//W3C//DTD SVG 1.1//EN"
  "http://www.w3.org/Graphics/SVG/1.1/DTD/svg11.dtd">
<svg xmlns:xlink="http://www.w3.org/1999/xlink" width="352.596719pt" height="271.190906pt" viewBox="0 0 352.596719 271.190906" xmlns="http://www.w3.org/2000/svg" version="1.1">
 <metadata>
  <rdf:RDF xmlns:dc="http://purl.org/dc/elements/1.1/" xmlns:cc="http://creativecommons.org/ns#" xmlns:rdf="http://www.w3.org/1999/02/22-rdf-syntax-ns#">
   <cc:Work>
    <dc:type rdf:resource="http://purl.org/dc/dcmitype/StillImage"/>
    <dc:date>2026-09-11T21:12:21.235545</dc:date>
    <dc:format>image/svg+xml</dc:format>
    <dc:creator>
     <cc:Agent>
      <dc:title>Matplotlib v3.11.0, https://matplotlib.org/</dc:title>
     </cc:Agent>
    </dc:creator>
   </cc:Work>
  </rdf:RDF>
 </metadata>
 <defs>
  <style type="text/css">*{stroke-linejoin: round; stroke-linecap: butt}</style>
 </defs>
 <g id="figure_1">
  <g id="patch_1">
   <path d="M 0 271.190906 
L 352.596719 271.190906 
L 352.596719 0 
L 0 0 
z
" style="fill: #ffffff"/>
  </g>
  <g id="axes_1">
   <g id="patch_2">
    <path d="M 44.103906 232.990125 
L 334.263906 232.990125 
L 334.263906 22.318125 
L 44.103906 22.318125 
z
" style="fill: #ffffff"/>
   </g>
   <g id="FillBetweenPolyCollection_1">
    <defs>
     <path id="mce777b2992" d="M 44.103906 -38.200781 
L 44.103906 -38.200781 
L 45.554706 -38.200781 
L 47.005506 -38.200781 
L 48.456306 -38.200781 
L 49.907106 -38.200781 
L 51.357906 -38.200781 
L 52.808706 -38.200781 
L 54.259506 -38.200781 
L 55.710306 -38.200781 
L 57.161106 -38.200781 
L 58.611906 -38.200781 
L 60.062706 -38.200781 
L 61.513506 -38.200781 
L 62.964306 -38.200781 
L 64.415106 -38.200781 
L 65.865906 -38.200781 
L 67.316706 -38.200781 
L 68.767506 -38.200781 
L 70.218306 -38.200781 
L 71.669106 -38.200781 
L 73.119906 -38.200781 
L 74.570706 -38.200781 
L 76.021506 -38.200781 
L 77.472306 -38.200781 
L 78.923106 -38.200781 
L 80.373906 -38.200781 
L 81.824706 -38.200781 
L 83.275506 -38.200781 
L 84.726306 -38.200781 
L 86.177106 -38.200781 
L 87.627906 -38.200781 
L 89.078706 -38.200781 
L 90.529506 -38.200781 
L 91.980306 -38.200781 
L 93.431106 -38.200781 
L 94.881906 -38.200781 
L 96.332706 -38.200781 
L 97.783506 -38.200781 
L 99.234306 -38.200781 
L 100.685106 -38.200781 
L 102.135906 -38.200781 
L 103.586706 -38.200781 
L 105.037506 -38.200781 
L 106.488306 -38.200781 
L 107.939106 -38.200781 
L 109.389906 -38.200781 
L 110.840706 -38.200781 
L 112.291506 -38.200781 
L 113.742306 -38.200781 
L 115.193106 -38.200781 
L 116.643906 -38.200781 
L 118.094706 -38.200781 
L 119.545506 -38.200781 
L 120.996306 -38.200781 
L 122.447106 -38.200781 
L 123.897906 -38.200781 
L 125.348706 -42.414221 
L 126.799506 -46.627661 
L 128.250306 -59.267981 
L 129.701106 -59.267981 
L 131.151906 -59.267981 
L 132.602706 -59.267981 
L 134.053506 -59.267981 
L 135.504306 -59.267981 
L 136.955106 -59.267981 
L 138.405906 -59.267981 
L 139.856706 -59.267981 
L 141.307506 -59.267981 
L 142.758306 -59.267981 
L 144.209106 -59.267981 
L 145.659906 -59.267981 
L 147.110706 -59.267981 
L 148.561506 -59.267981 
L 150.012306 -59.267981 
L 151.463106 -59.267981 
L 152.913906 -59.267981 
L 154.364706 -59.267981 
L 155.815506 -59.267981 
L 157.266306 -59.267981 
L 158.717106 -59.267981 
L 160.167906 -63.481421 
L 161.618706 -63.481421 
L 163.069506 -63.481421 
L 164.520306 -63.481421 
L 165.971106 -63.481421 
L 167.421906 -63.481421 
L 168.872706 -63.481421 
L 170.323506 -63.481421 
L 171.774306 -63.481421 
L 173.225106 -67.694861 
L 174.675906 -67.694861 
L 176.126706 -71.908301 
L 177.577506 -71.908301 
L 179.028306 -80.335181 
L 180.479106 -80.335181 
L 181.929906 -80.335181 
L 183.380706 -84.548621 
L 184.831506 -88.762061 
L 186.282306 -88.762061 
L 187.733106 -88.762061 
L 189.183906 -97.188941 
L 190.634706 -105.615821 
L 192.085506 -105.615821 
L 193.536306 -114.042701 
L 194.987106 -114.042701 
L 196.437906 -114.042701 
L 197.888706 -114.042701 
L 199.339506 -114.042701 
L 200.790306 -114.042701 
L 202.241106 -114.042701 
L 203.691906 -118.256141 
L 205.142706 -118.256141 
L 206.593506 -118.256141 
L 208.044306 -118.256141 
L 209.495106 -118.256141 
L 210.945906 -122.469581 
L 212.396706 -122.469581 
L 213.847506 -122.469581 
L 215.298306 -122.469581 
L 216.749106 -122.469581 
L 218.199906 -126.683021 
L 219.650706 -126.683021 
L 221.101506 -130.896461 
L 222.552306 -130.896461 
L 224.003106 -130.896461 
L 225.453906 -130.896461 
L 226.904706 -130.896461 
L 228.355506 -135.109901 
L 229.806306 -135.109901 
L 231.257106 -139.323341 
L 232.707906 -139.323341 
L 234.158706 -139.323341 
L 235.609506 -147.750221 
L 237.060306 -147.750221 
L 238.511106 -147.750221 
L 239.961906 -147.750221 
L 241.412706 -147.750221 
L 242.863506 -147.750221 
L 244.314306 -147.750221 
L 245.765106 -151.963661 
L 247.215906 -151.963661 
L 248.666706 -151.963661 
L 250.117506 -151.963661 
L 251.568306 -151.963661 
L 253.019106 -156.177101 
L 254.469906 -156.177101 
L 255.920706 -156.177101 
L 257.371506 -156.177101 
L 258.822306 -156.177101 
L 260.273106 -156.177101 
L 261.723906 -156.177101 
L 263.174706 -156.177101 
L 264.625506 -156.177101 
L 266.076306 -156.177101 
L 267.527106 -156.177101 
L 268.977906 -156.177101 
L 270.428706 -156.177101 
L 271.879506 -156.177101 
L 273.330306 -156.177101 
L 274.781106 -156.177101 
L 276.231906 -160.390541 
L 277.682706 -160.390541 
L 279.133506 -160.390541 
L 280.584306 -160.390541 
L 282.035106 -160.390541 
L 283.485906 -160.390541 
L 284.936706 -168.817421 
L 286.387506 -168.817421 
L 287.838306 -168.817421 
L 289.289106 -168.817421 
L 290.739906 -168.817421 
L 292.190706 -168.817421 
L 293.641506 -168.817421 
L 295.092306 -168.817421 
L 296.543106 -168.817421 
L 297.993906 -168.817421 
L 299.444706 -173.030861 
L 300.895506 -173.030861 
L 302.346306 -177.244301 
L 303.797106 -181.457741 
L 305.247906 -185.671181 
L 306.698706 -189.884621 
L 308.149506 -189.884621 
L 309.600306 -194.098061 
L 311.051106 -194.098061 
L 312.501906 -194.098061 
L 313.952706 -194.098061 
L 315.403506 -194.098061 
L 316.854306 -202.524941 
L 318.305106 -202.524941 
L 319.755906 -202.524941 
L 321.206706 -206.738381 
L 322.657506 -206.738381 
L 324.108306 -210.951821 
L 325.559106 -210.951821 
L 327.009906 -215.165261 
L 328.460706 -223.592141 
L 329.911506 -223.592141 
L 331.362306 -227.805581 
L 332.813106 -227.805581 
L 334.263906 -248.872781 
L 334.263906 -248.872781 
L 334.263906 -248.872781 
L 332.813106 -244.659341 
L 331.362306 -244.659341 
L 329.911506 -244.659341 
L 328.460706 -244.659341 
L 327.009906 -244.659341 
L 325.559106 -240.445901 
L 324.108306 -240.445901 
L 322.657506 -240.445901 
L 321.206706 -236.232461 
L 319.755906 -223.592141 
L 318.305106 -223.592141 
L 316.854306 -223.592141 
L 315.403506 -219.378701 
L 313.952706 -219.378701 
L 312.501906 -215.165261 
L 311.051106 -210.951821 
L 309.600306 -210.951821 
L 308.149506 -210.951821 
L 306.698706 -210.951821 
L 305.247906 -206.738381 
L 303.797106 -202.524941 
L 302.346306 -202.524941 
L 300.895506 -202.524941 
L 299.444706 -198.311501 
L 297.993906 -189.884621 
L 296.543106 -189.884621 
L 295.092306 -185.671181 
L 293.641506 -181.457741 
L 292.190706 -181.457741 
L 290.739906 -181.457741 
L 289.289106 -177.244301 
L 287.838306 -173.030861 
L 286.387506 -173.030861 
L 284.936706 -173.030861 
L 283.485906 -168.817421 
L 282.035106 -168.817421 
L 280.584306 -168.817421 
L 279.133506 -168.817421 
L 277.682706 -168.817421 
L 276.231906 -168.817421 
L 274.781106 -168.817421 
L 273.330306 -164.603981 
L 271.879506 -164.603981 
L 270.428706 -164.603981 
L 268.977906 -164.603981 
L 267.527106 -164.603981 
L 266.076306 -160.390541 
L 264.625506 -160.390541 
L 263.174706 -160.390541 
L 261.723906 -160.390541 
L 260.273106 -160.390541 
L 258.822306 -160.390541 
L 257.371506 -160.390541 
L 255.920706 -160.390541 
L 254.469906 -160.390541 
L 253.019106 -160.390541 
L 251.568306 -160.390541 
L 250.117506 -160.390541 
L 248.666706 -160.390541 
L 247.215906 -156.177101 
L 245.765106 -156.177101 
L 244.314306 -156.177101 
L 242.863506 -156.177101 
L 241.412706 -156.177101 
L 239.961906 -156.177101 
L 238.511106 -156.177101 
L 237.060306 -151.963661 
L 235.609506 -151.963661 
L 234.158706 -151.963661 
L 232.707906 -147.750221 
L 231.257106 -147.750221 
L 229.806306 -147.750221 
L 228.355506 -147.750221 
L 226.904706 -147.750221 
L 225.453906 -147.750221 
L 224.003106 -147.750221 
L 222.552306 -147.750221 
L 221.101506 -147.750221 
L 219.650706 -147.750221 
L 218.199906 -147.750221 
L 216.749106 -147.750221 
L 215.298306 -143.536781 
L 213.847506 -139.323341 
L 212.396706 -139.323341 
L 210.945906 -139.323341 
L 209.495106 -135.109901 
L 208.044306 -135.109901 
L 206.593506 -135.109901 
L 205.142706 -135.109901 
L 203.691906 -135.109901 
L 202.241106 -135.109901 
L 200.790306 -135.109901 
L 199.339506 -135.109901 
L 197.888706 -130.896461 
L 196.437906 -130.896461 
L 194.987106 -130.896461 
L 193.536306 -126.683021 
L 192.085506 -126.683021 
L 190.634706 -126.683021 
L 189.183906 -97.188941 
L 187.733106 -92.975501 
L 186.282306 -88.762061 
L 184.831506 -88.762061 
L 183.380706 -84.548621 
L 181.929906 -84.548621 
L 180.479106 -84.548621 
L 179.028306 -84.548621 
L 177.577506 -76.121741 
L 176.126706 -76.121741 
L 174.675906 -71.908301 
L 173.225106 -67.694861 
L 171.774306 -67.694861 
L 170.323506 -63.481421 
L 168.872706 -63.481421 
L 167.421906 -63.481421 
L 165.971106 -63.481421 
L 164.520306 -63.481421 
L 163.069506 -63.481421 
L 161.618706 -63.481421 
L 160.167906 -63.481421 
L 158.717106 -63.481421 
L 157.266306 -63.481421 
L 155.815506 -63.481421 
L 154.364706 -63.481421 
L 152.913906 -63.481421 
L 151.463106 -63.481421 
L 150.012306 -59.267981 
L 148.561506 -59.267981 
L 147.110706 -59.267981 
L 145.659906 -59.267981 
L 144.209106 -59.267981 
L 142.758306 -59.267981 
L 141.307506 -59.267981 
L 139.856706 -59.267981 
L 138.405906 -59.267981 
L 136.955106 -59.267981 
L 135.504306 -59.267981 
L 134.053506 -59.267981 
L 132.602706 -59.267981 
L 131.151906 -59.267981 
L 129.701106 -59.267981 
L 128.250306 -59.267981 
L 126.799506 -59.267981 
L 125.348706 -59.267981 
L 123.897906 -59.267981 
L 122.447106 -59.267981 
L 120.996306 -59.267981 
L 119.545506 -55.054541 
L 118.094706 -46.627661 
L 116.643906 -46.627661 
L 115.193106 -42.414221 
L 113.742306 -42.414221 
L 112.291506 -42.414221 
L 110.840706 -42.414221 
L 109.389906 -42.414221 
L 107.939106 -42.414221 
L 106.488306 -42.414221 
L 105.037506 -42.414221 
L 103.586706 -42.414221 
L 102.135906 -42.414221 
L 100.685106 -42.414221 
L 99.234306 -42.414221 
L 97.783506 -42.414221 
L 96.332706 -38.200781 
L 94.881906 -38.200781 
L 93.431106 -38.200781 
L 91.980306 -38.200781 
L 90.529506 -38.200781 
L 89.078706 -38.200781 
L 87.627906 -38.200781 
L 86.177106 -38.200781 
L 84.726306 -38.200781 
L 83.275506 -38.200781 
L 81.824706 -38.200781 
L 80.373906 -38.200781 
L 78.923106 -38.200781 
L 77.472306 -38.200781 
L 76.021506 -38.200781 
L 74.570706 -38.200781 
L 73.119906 -38.200781 
L 71.669106 -38.200781 
L 70.218306 -38.200781 
L 68.767506 -38.200781 
L 67.316706 -38.200781 
L 65.865906 -38.200781 
L 64.415106 -38.200781 
L 62.964306 -38.200781 
L 61.513506 -38.200781 
L 60.062706 -38.200781 
L 58.611906 -38.200781 
L 57.161106 -38.200781 
L 55.710306 -38.200781 
L 54.259506 -38.200781 
L 52.808706 -38.200781 
L 51.357906 -38.200781 
L 49.907106 -38.200781 
L 48.456306 -38.200781 
L 47.005506 -38.200781 
L 45.554706 -38.200781 
L 44.103906 -38.200781 
z
" style="stroke: #6a3d9a; stroke-opacity: 0.16"/>
    </defs>
    <g clip-path="url(#pd3531febb5)">
     <use xlink:href="#mce777b2992" x="0" y="271.190906" style="fill: #6a3d9a; fill-opacity: 0.16; stroke: #6a3d9a; stroke-opacity: 0.16"/>
    </g>
   </g>
   <g id="FillBetweenPolyCollection_2">
    <defs>
     <path id="m9070ee4caa" d="M 44.103906 -38.200781 
L 44.103906 -38.200781 
L 45.554706 -38.200781 
L 47.005506 -38.200781 
L 48.456306 -38.200781 
L 49.907106 -38.200781 
L 51.357906 -38.200781 
L 52.808706 -38.200781 
L 54.259506 -38.200781 
L 55.710306 -38.200781 
L 57.161106 -38.200781 
L 58.611906 -38.200781 
L 60.062706 -38.200781 
L 61.513506 -38.200781 
L 62.964306 -38.200781 
L 64.415106 -38.200781 
L 65.865906 -38.200781 
L 67.316706 -38.200781 
L 68.767506 -38.200781 
L 70.218306 -38.200781 
L 71.669106 -38.200781 
L 73.119906 -38.200781 
L 74.570706 -38.200781 
L 76.021506 -38.200781 
L 77.472306 -38.200781 
L 78.923106 -38.200781 
L 80.373906 -38.200781 
L 81.824706 -38.200781 
L 83.275506 -38.200781 
L 84.726306 -38.200781 
L 86.177106 -38.200781 
L 87.627906 -38.200781 
L 89.078706 -38.200781 
L 90.529506 -38.200781 
L 91.980306 -38.200781 
L 93.431106 -38.200781 
L 94.881906 -38.200781 
L 96.332706 -38.200781 
L 97.783506 -38.200781 
L 99.234306 -38.200781 
L 100.685106 -38.200781 
L 102.135906 -38.200781 
L 103.586706 -38.200781 
L 105.037506 -38.200781 
L 106.488306 -38.200781 
L 107.939106 -38.200781 
L 109.389906 -38.200781 
L 110.840706 -38.200781 
L 112.291506 -38.200781 
L 113.742306 -38.200781 
L 115.193106 -38.200781 
L 116.643906 -38.200781 
L 118.094706 -38.200781 
L 119.545506 -38.200781 
L 120.996306 -38.200781 
L 122.447106 -38.200781 
L 123.897906 -38.200781 
L 125.348706 -38.200781 
L 126.799506 -38.200781 
L 128.250306 -38.200781 
L 129.701106 -38.200781 
L 131.151906 -38.200781 
L 132.602706 -38.200781 
L 134.053506 -38.200781 
L 135.504306 -38.200781 
L 136.955106 -38.200781 
L 138.405906 -38.200781 
L 139.856706 -38.200781 
L 141.307506 -38.200781 
L 142.758306 -38.200781 
L 144.209106 -38.200781 
L 145.659906 -38.200781 
L 147.110706 -38.200781 
L 148.561506 -38.200781 
L 150.012306 -38.200781 
L 151.463106 -38.200781 
L 152.913906 -38.200781 
L 154.364706 -38.200781 
L 155.815506 -38.200781 
L 157.266306 -38.200781 
L 158.717106 -38.200781 
L 160.167906 -38.200781 
L 161.618706 -38.200781 
L 163.069506 -38.200781 
L 164.520306 -38.200781 
L 165.971106 -38.200781 
L 167.421906 -38.200781 
L 168.872706 -38.200781 
L 170.323506 -38.200781 
L 171.774306 -38.200781 
L 173.225106 -38.200781 
L 174.675906 -38.200781 
L 176.126706 -38.200781 
L 177.577506 -38.200781 
L 179.028306 -38.200781 
L 180.479106 -38.200781 
L 181.929906 -38.200781 
L 183.380706 -38.200781 
L 184.831506 -38.200781 
L 186.282306 -38.200781 
L 187.733106 -42.414221 
L 189.183906 -42.414221 
L 190.634706 -59.267981 
L 192.085506 -59.267981 
L 193.536306 -59.267981 
L 194.987106 -59.267981 
L 196.437906 -63.481421 
L 197.888706 -63.481421 
L 199.339506 -63.481421 
L 200.790306 -67.694861 
L 202.241106 -67.694861 
L 203.691906 -67.694861 
L 205.142706 -67.694861 
L 206.593506 -67.694861 
L 208.044306 -67.694861 
L 209.495106 -67.694861 
L 210.945906 -67.694861 
L 212.396706 -67.694861 
L 213.847506 -67.694861 
L 215.298306 -67.694861 
L 216.749106 -67.694861 
L 218.199906 -67.694861 
L 219.650706 -67.694861 
L 221.101506 -71.908301 
L 222.552306 -71.908301 
L 224.003106 -71.908301 
L 225.453906 -71.908301 
L 226.904706 -71.908301 
L 228.355506 -71.908301 
L 229.806306 -71.908301 
L 231.257106 -71.908301 
L 232.707906 -71.908301 
L 234.158706 -71.908301 
L 235.609506 -71.908301 
L 237.060306 -71.908301 
L 238.511106 -71.908301 
L 239.961906 -71.908301 
L 241.412706 -71.908301 
L 242.863506 -71.908301 
L 244.314306 -71.908301 
L 245.765106 -71.908301 
L 247.215906 -71.908301 
L 248.666706 -71.908301 
L 250.117506 -71.908301 
L 251.568306 -71.908301 
L 253.019106 -71.908301 
L 254.469906 -71.908301 
L 255.920706 -71.908301 
L 257.371506 -71.908301 
L 258.822306 -71.908301 
L 260.273106 -71.908301 
L 261.723906 -71.908301 
L 263.174706 -71.908301 
L 264.625506 -71.908301 
L 266.076306 -71.908301 
L 267.527106 -71.908301 
L 268.977906 -71.908301 
L 270.428706 -71.908301 
L 271.879506 -71.908301 
L 273.330306 -71.908301 
L 274.781106 -71.908301 
L 276.231906 -71.908301 
L 277.682706 -71.908301 
L 279.133506 -71.908301 
L 280.584306 -71.908301 
L 282.035106 -76.121741 
L 283.485906 -76.121741 
L 284.936706 -76.121741 
L 286.387506 -80.335181 
L 287.838306 -84.548621 
L 289.289106 -84.548621 
L 290.739906 -84.548621 
L 292.190706 -84.548621 
L 293.641506 -84.548621 
L 295.092306 -84.548621 
L 296.543106 -84.548621 
L 297.993906 -84.548621 
L 299.444706 -92.975501 
L 300.895506 -92.975501 
L 302.346306 -92.975501 
L 303.797106 -101.402381 
L 305.247906 -105.615821 
L 306.698706 -109.829261 
L 308.149506 -114.042701 
L 309.600306 -118.256141 
L 311.051106 -126.683021 
L 312.501906 -126.683021 
L 313.952706 -126.683021 
L 315.403506 -130.896461 
L 316.854306 -139.323341 
L 318.305106 -143.536781 
L 319.755906 -143.536781 
L 321.206706 -151.963661 
L 322.657506 -156.177101 
L 324.108306 -160.390541 
L 325.559106 -177.244301 
L 327.009906 -177.244301 
L 328.460706 -185.671181 
L 329.911506 -189.884621 
L 331.362306 -198.311501 
L 332.813106 -210.951821 
L 334.263906 -248.872781 
L 334.263906 -248.872781 
L 334.263906 -248.872781 
L 332.813106 -240.445901 
L 331.362306 -223.592141 
L 329.911506 -206.738381 
L 328.460706 -189.884621 
L 327.009906 -185.671181 
L 325.559106 -177.244301 
L 324.108306 -177.244301 
L 322.657506 -173.030861 
L 321.206706 -173.030861 
L 319.755906 -164.603981 
L 318.305106 -160.390541 
L 316.854306 -151.963661 
L 315.403506 -139.323341 
L 313.952706 -139.323341 
L 312.501906 -139.323341 
L 311.051106 -126.683021 
L 309.600306 -118.256141 
L 308.149506 -118.256141 
L 306.698706 -118.256141 
L 305.247906 -114.042701 
L 303.797106 -105.615821 
L 302.346306 -97.188941 
L 300.895506 -92.975501 
L 299.444706 -92.975501 
L 297.993906 -92.975501 
L 296.543106 -88.762061 
L 295.092306 -88.762061 
L 293.641506 -88.762061 
L 292.190706 -88.762061 
L 290.739906 -84.548621 
L 289.289106 -84.548621 
L 287.838306 -84.548621 
L 286.387506 -84.548621 
L 284.936706 -80.335181 
L 283.485906 -80.335181 
L 282.035106 -80.335181 
L 280.584306 -80.335181 
L 279.133506 -80.335181 
L 277.682706 -80.335181 
L 276.231906 -80.335181 
L 274.781106 -80.335181 
L 273.330306 -80.335181 
L 271.879506 -80.335181 
L 270.428706 -80.335181 
L 268.977906 -80.335181 
L 267.527106 -80.335181 
L 266.076306 -80.335181 
L 264.625506 -80.335181 
L 263.174706 -80.335181 
L 261.723906 -80.335181 
L 260.273106 -80.335181 
L 258.822306 -80.335181 
L 257.371506 -80.335181 
L 255.920706 -80.335181 
L 254.469906 -80.335181 
L 253.019106 -80.335181 
L 251.568306 -80.335181 
L 250.117506 -80.335181 
L 248.666706 -80.335181 
L 247.215906 -80.335181 
L 245.765106 -80.335181 
L 244.314306 -80.335181 
L 242.863506 -80.335181 
L 241.412706 -80.335181 
L 239.961906 -80.335181 
L 238.511106 -80.335181 
L 237.060306 -80.335181 
L 235.609506 -80.335181 
L 234.158706 -80.335181 
L 232.707906 -80.335181 
L 231.257106 -80.335181 
L 229.806306 -76.121741 
L 228.355506 -76.121741 
L 226.904706 -71.908301 
L 225.453906 -71.908301 
L 224.003106 -71.908301 
L 222.552306 -71.908301 
L 221.101506 -71.908301 
L 219.650706 -71.908301 
L 218.199906 -71.908301 
L 216.749106 -71.908301 
L 215.298306 -71.908301 
L 213.847506 -71.908301 
L 212.396706 -71.908301 
L 210.945906 -71.908301 
L 209.495106 -71.908301 
L 208.044306 -71.908301 
L 206.593506 -71.908301 
L 205.142706 -71.908301 
L 203.691906 -71.908301 
L 202.241106 -71.908301 
L 200.790306 -71.908301 
L 199.339506 -71.908301 
L 197.888706 -71.908301 
L 196.437906 -71.908301 
L 194.987106 -71.908301 
L 193.536306 -71.908301 
L 192.085506 -71.908301 
L 190.634706 -71.908301 
L 189.183906 -42.414221 
L 187.733106 -42.414221 
L 186.282306 -42.414221 
L 184.831506 -42.414221 
L 183.380706 -42.414221 
L 181.929906 -38.200781 
L 180.479106 -38.200781 
L 179.028306 -38.200781 
L 177.577506 -38.200781 
L 176.126706 -38.200781 
L 174.675906 -38.200781 
L 173.225106 -38.200781 
L 171.774306 -38.200781 
L 170.323506 -38.200781 
L 168.872706 -38.200781 
L 167.421906 -38.200781 
L 165.971106 -38.200781 
L 164.520306 -38.200781 
L 163.069506 -38.200781 
L 161.618706 -38.200781 
L 160.167906 -38.200781 
L 158.717106 -38.200781 
L 157.266306 -38.200781 
L 155.815506 -38.200781 
L 154.364706 -38.200781 
L 152.913906 -38.200781 
L 151.463106 -38.200781 
L 150.012306 -38.200781 
L 148.561506 -38.200781 
L 147.110706 -38.200781 
L 145.659906 -38.200781 
L 144.209106 -38.200781 
L 142.758306 -38.200781 
L 141.307506 -38.200781 
L 139.856706 -38.200781 
L 138.405906 -38.200781 
L 136.955106 -38.200781 
L 135.504306 -38.200781 
L 134.053506 -38.200781 
L 132.602706 -38.200781 
L 131.151906 -38.200781 
L 129.701106 -38.200781 
L 128.250306 -38.200781 
L 126.799506 -38.200781 
L 125.348706 -38.200781 
L 123.897906 -38.200781 
L 122.447106 -38.200781 
L 120.996306 -38.200781 
L 119.545506 -38.200781 
L 118.094706 -38.200781 
L 116.643906 -38.200781 
L 115.193106 -38.200781 
L 113.742306 -38.200781 
L 112.291506 -38.200781 
L 110.840706 -38.200781 
L 109.389906 -38.200781 
L 107.939106 -38.200781 
L 106.488306 -38.200781 
L 105.037506 -38.200781 
L 103.586706 -38.200781 
L 102.135906 -38.200781 
L 100.685106 -38.200781 
L 99.234306 -38.200781 
L 97.783506 -38.200781 
L 96.332706 -38.200781 
L 94.881906 -38.200781 
L 93.431106 -38.200781 
L 91.980306 -38.200781 
L 90.529506 -38.200781 
L 89.078706 -38.200781 
L 87.627906 -38.200781 
L 86.177106 -38.200781 
L 84.726306 -38.200781 
L 83.275506 -38.200781 
L 81.824706 -38.200781 
L 80.373906 -38.200781 
L 78.923106 -38.200781 
L 77.472306 -38.200781 
L 76.021506 -38.200781 
L 74.570706 -38.200781 
L 73.119906 -38.200781 
L 71.669106 -38.200781 
L 70.218306 -38.200781 
L 68.767506 -38.200781 
L 67.316706 -38.200781 
L 65.865906 -38.200781 
L 64.415106 -38.200781 
L 62.964306 -38.200781 
L 61.513506 -38.200781 
L 60.062706 -38.200781 
L 58.611906 -38.200781 
L 57.161106 -38.200781 
L 55.710306 -38.200781 
L 54.259506 -38.200781 
L 52.808706 -38.200781 
L 51.357906 -38.200781 
L 49.907106 -38.200781 
L 48.456306 -38.200781 
L 47.005506 -38.200781 
L 45.554706 -38.200781 
L 44.103906 -38.200781 
z
" style="stroke: #666666; stroke-opacity: 0.16"/>
    </defs>
    <g clip-path="url(#pd3531febb5)">
     <use xlink:href="#m9070ee4caa" x="0" y="271.190906" style="fill: #666666; fill-opacity: 0.16; stroke: #666666; stroke-opacity: 0.16"/>
    </g>
   </g>
   <g id="matplotlib.axis_1">
    <g id="xtick_1">
     <g id="line2d_1">
      <defs>
       <path id="m9bc2866f78" d="M 0 0 
L 0 3.5 
" style="stroke: #000000; stroke-width: 0.8"/>
      </defs>
      <g>
       <use xlink:href="#m9bc2866f78" x="44.103906" y="232.990125" style="stroke: #000000; stroke-width: 0.8"/>
      </g>
     </g>
     <g id="text_1">
      <!-- −1.00 -->
      <g transform="translate(28.78125 247.587781) scale(0.1 -0.1)">
       <defs>
        <path id="DejaVuSans-c9c" d="M 678 2272 
L 4684 2272 
L 4684 1741 
L 678 1741 
L 678 2272 
z
" transform="scale(0.015625)"/>
        <path id="DejaVuSans-14" d="M 794 531 
L 1825 531 
L 1825 4091 
L 703 3866 
L 703 4441 
L 1819 4666 
L 2450 4666 
L 2450 531 
L 3481 531 
L 3481 0 
L 794 0 
L 794 531 
z
" transform="scale(0.015625)"/>
        <path id="DejaVuSans-11" d="M 684 794 
L 1344 794 
L 1344 0 
L 684 0 
L 684 794 
z
" transform="scale(0.015625)"/>
        <path id="DejaVuSans-13" d="M 2034 4250 
Q 1547 4250 1301 3770 
Q 1056 3291 1056 2328 
Q 1056 1369 1301 889 
Q 1547 409 2034 409 
Q 2525 409 2770 889 
Q 3016 1369 3016 2328 
Q 3016 3291 2770 3770 
Q 2525 4250 2034 4250 
z
M 2034 4750 
Q 2819 4750 3233 4129 
Q 3647 3509 3647 2328 
Q 3647 1150 3233 529 
Q 2819 -91 2034 -91 
Q 1250 -91 836 529 
Q 422 1150 422 2328 
Q 422 3509 836 4129 
Q 1250 4750 2034 4750 
z
" transform="scale(0.015625)"/>
       </defs>
       <use xlink:href="#DejaVuSans-c9c"/>
       <use xlink:href="#DejaVuSans-14" transform="translate(83.796875 0)"/>
       <use xlink:href="#DejaVuSans-11" transform="translate(147.421875 0)"/>
       <use xlink:href="#DejaVuSans-13" transform="translate(179.203125 0)"/>
       <use xlink:href="#DejaVuSans-13" transform="translate(242.828125 0)"/>
      </g>
     </g>
    </g>
    <g id="xtick_2">
     <g id="line2d_2">
      <g>
       <use xlink:href="#m9bc2866f78" x="80.373906" y="232.990125" style="stroke: #000000; stroke-width: 0.8"/>
      </g>
     </g>
     <g id="text_2">
      <!-- −0.75 -->
      <g transform="translate(65.05125 247.587781) scale(0.1 -0.1)">
       <defs>
        <path id="DejaVuSans-1a" d="M 525 4666 
L 3525 4666 
L 3525 4397 
L 1831 0 
L 1172 0 
L 2766 4134 
L 525 4134 
L 525 4666 
z
" transform="scale(0.015625)"/>
        <path id="DejaVuSans-18" d="M 691 4666 
L 3169 4666 
L 3169 4134 
L 1269 4134 
L 1269 2991 
Q 1406 3038 1543 3061 
Q 1681 3084 1819 3084 
Q 2600 3084 3056 2656 
Q 3513 2228 3513 1497 
Q 3513 744 3044 326 
Q 2575 -91 1722 -91 
Q 1428 -91 1123 -41 
Q 819 9 494 109 
L 494 744 
Q 775 591 1075 516 
Q 1375 441 1709 441 
Q 2250 441 2565 725 
Q 2881 1009 2881 1497 
Q 2881 1984 2565 2268 
Q 2250 2553 1709 2553 
Q 1456 2553 1204 2497 
Q 953 2441 691 2322 
L 691 4666 
z
" transform="scale(0.015625)"/>
       </defs>
       <use xlink:href="#DejaVuSans-c9c"/>
       <use xlink:href="#DejaVuSans-13" transform="translate(83.796875 0)"/>
       <use xlink:href="#DejaVuSans-11" transform="translate(147.421875 0)"/>
       <use xlink:href="#DejaVuSans-1a" transform="translate(179.203125 0)"/>
       <use xlink:href="#DejaVuSans-18" transform="translate(242.828125 0)"/>
      </g>
     </g>
    </g>
    <g id="xtick_3">
     <g id="line2d_3">
      <g>
       <use xlink:href="#m9bc2866f78" x="116.643906" y="232.990125" style="stroke: #000000; stroke-width: 0.8"/>
      </g>
     </g>
     <g id="text_3">
      <!-- −0.50 -->
      <g transform="translate(101.32125 247.587781) scale(0.1 -0.1)">
       <use xlink:href="#DejaVuSans-c9c"/>
       <use xlink:href="#DejaVuSans-13" transform="translate(83.796875 0)"/>
       <use xlink:href="#DejaVuSans-11" transform="translate(147.421875 0)"/>
       <use xlink:href="#DejaVuSans-18" transform="translate(179.203125 0)"/>
       <use xlink:href="#DejaVuSans-13" transform="translate(242.828125 0)"/>
      </g>
     </g>
    </g>
    <g id="xtick_4">
     <g id="line2d_4">
      <g>
       <use xlink:href="#m9bc2866f78" x="152.913906" y="232.990125" style="stroke: #000000; stroke-width: 0.8"/>
      </g>
     </g>
     <g id="text_4">
      <!-- −0.25 -->
      <g transform="translate(137.59125 247.587781) scale(0.1 -0.1)">
       <defs>
        <path id="DejaVuSans-15" d="M 1228 531 
L 3431 531 
L 3431 0 
L 469 0 
L 469 531 
Q 828 903 1448 1529 
Q 2069 2156 2228 2338 
Q 2531 2678 2651 2914 
Q 2772 3150 2772 3378 
Q 2772 3750 2511 3984 
Q 2250 4219 1831 4219 
Q 1534 4219 1204 4116 
Q 875 4013 500 3803 
L 500 4441 
Q 881 4594 1212 4672 
Q 1544 4750 1819 4750 
Q 2544 4750 2975 4387 
Q 3406 4025 3406 3419 
Q 3406 3131 3298 2873 
Q 3191 2616 2906 2266 
Q 2828 2175 2409 1742 
Q 1991 1309 1228 531 
z
" transform="scale(0.015625)"/>
       </defs>
       <use xlink:href="#DejaVuSans-c9c"/>
       <use xlink:href="#DejaVuSans-13" transform="translate(83.796875 0)"/>
       <use xlink:href="#DejaVuSans-11" transform="translate(147.421875 0)"/>
       <use xlink:href="#DejaVuSans-15" transform="translate(179.203125 0)"/>
       <use xlink:href="#DejaVuSans-18" transform="translate(242.828125 0)"/>
      </g>
     </g>
    </g>
    <g id="xtick_5">
     <g id="line2d_5">
      <g>
       <use xlink:href="#m9bc2866f78" x="189.183906" y="232.990125" style="stroke: #000000; stroke-width: 0.8"/>
      </g>
     </g>
     <g id="text_5">
      <!-- 0.00 -->
      <g transform="translate(178.051094 247.587781) scale(0.1 -0.1)">
       <use xlink:href="#DejaVuSans-13"/>
       <use xlink:href="#DejaVuSans-11" transform="translate(63.625 0)"/>
       <use xlink:href="#DejaVuSans-13" transform="translate(95.40625 0)"/>
       <use xlink:href="#DejaVuSans-13" transform="translate(159.03125 0)"/>
      </g>
     </g>
    </g>
    <g id="xtick_6">
     <g id="line2d_6">
      <g>
       <use xlink:href="#m9bc2866f78" x="225.453906" y="232.990125" style="stroke: #000000; stroke-width: 0.8"/>
      </g>
     </g>
     <g id="text_6">
      <!-- 0.25 -->
      <g transform="translate(214.321094 247.587781) scale(0.1 -0.1)">
       <use xlink:href="#DejaVuSans-13"/>
       <use xlink:href="#DejaVuSans-11" transform="translate(63.625 0)"/>
       <use xlink:href="#DejaVuSans-15" transform="translate(95.40625 0)"/>
       <use xlink:href="#DejaVuSans-18" transform="translate(159.03125 0)"/>
      </g>
     </g>
    </g>
    <g id="xtick_7">
     <g id="line2d_7">
      <g>
       <use xlink:href="#m9bc2866f78" x="261.723906" y="232.990125" style="stroke: #000000; stroke-width: 0.8"/>
      </g>
     </g>
     <g id="text_7">
      <!-- 0.50 -->
      <g transform="translate(250.591094 247.587781) scale(0.1 -0.1)">
       <use xlink:href="#DejaVuSans-13"/>
       <use xlink:href="#DejaVuSans-11" transform="translate(63.625 0)"/>
       <use xlink:href="#DejaVuSans-18" transform="translate(95.40625 0)"/>
       <use xlink:href="#DejaVuSans-13" transform="translate(159.03125 0)"/>
      </g>
     </g>
    </g>
    <g id="xtick_8">
     <g id="line2d_8">
      <g>
       <use xlink:href="#m9bc2866f78" x="297.993906" y="232.990125" style="stroke: #000000; stroke-width: 0.8"/>
      </g>
     </g>
     <g id="text_8">
      <!-- 0.75 -->
      <g transform="translate(286.861094 247.587781) scale(0.1 -0.1)">
       <use xlink:href="#DejaVuSans-13"/>
       <use xlink:href="#DejaVuSans-11" transform="translate(63.625 0)"/>
       <use xlink:href="#DejaVuSans-1a" transform="translate(95.40625 0)"/>
       <use xlink:href="#DejaVuSans-18" transform="translate(159.03125 0)"/>
      </g>
     </g>
    </g>
    <g id="xtick_9">
     <g id="line2d_9">
      <g>
       <use xlink:href="#m9bc2866f78" x="334.263906" y="232.990125" style="stroke: #000000; stroke-width: 0.8"/>
      </g>
     </g>
     <g id="text_9">
      <!-- 1.00 -->
      <g transform="translate(323.131094 247.587781) scale(0.1 -0.1)">
       <use xlink:href="#DejaVuSans-14"/>
       <use xlink:href="#DejaVuSans-11" transform="translate(63.625 0)"/>
       <use xlink:href="#DejaVuSans-13" transform="translate(95.40625 0)"/>
       <use xlink:href="#DejaVuSans-13" transform="translate(159.03125 0)"/>
      </g>
     </g>
    </g>
    <g id="text_10">
     <!-- Unit tuning similarity: pre-exchange to block endpoint -->
     <g transform="translate(54.331562 261.588562) scale(0.1 -0.1)">
      <defs>
       <path id="DejaVuSans-38" d="M 556 4666 
L 1191 4666 
L 1191 1831 
Q 1191 1081 1462 751 
Q 1734 422 2344 422 
Q 2950 422 3222 751 
Q 3494 1081 3494 1831 
L 3494 4666 
L 4128 4666 
L 4128 1753 
Q 4128 841 3676 375 
Q 3225 -91 2344 -91 
Q 1459 -91 1007 375 
Q 556 841 556 1753 
L 556 4666 
z
" transform="scale(0.015625)"/>
       <path id="DejaVuSans-51" d="M 3513 2113 
L 3513 0 
L 2938 0 
L 2938 2094 
Q 2938 2591 2744 2837 
Q 2550 3084 2163 3084 
Q 1697 3084 1428 2787 
Q 1159 2491 1159 1978 
L 1159 0 
L 581 0 
L 581 3500 
L 1159 3500 
L 1159 2956 
Q 1366 3272 1645 3428 
Q 1925 3584 2291 3584 
Q 2894 3584 3203 3211 
Q 3513 2838 3513 2113 
z
" transform="scale(0.015625)"/>
       <path id="DejaVuSans-4c" d="M 603 3500 
L 1178 3500 
L 1178 0 
L 603 0 
L 603 3500 
z
M 603 4863 
L 1178 4863 
L 1178 4134 
L 603 4134 
L 603 4863 
z
" transform="scale(0.015625)"/>
       <path id="DejaVuSans-57" d="M 1172 4494 
L 1172 3500 
L 2356 3500 
L 2356 3053 
L 1172 3053 
L 1172 1153 
Q 1172 725 1289 603 
Q 1406 481 1766 481 
L 2356 481 
L 2356 0 
L 1766 0 
Q 1100 0 847 248 
Q 594 497 594 1153 
L 594 3053 
L 172 3053 
L 172 3500 
L 594 3500 
L 594 4494 
L 1172 4494 
z
" transform="scale(0.015625)"/>
       <path id="DejaVuSans-3" transform="scale(0.015625)"/>
       <path id="DejaVuSans-58" d="M 544 1381 
L 544 3500 
L 1119 3500 
L 1119 1403 
Q 1119 906 1312 657 
Q 1506 409 1894 409 
Q 2359 409 2629 706 
Q 2900 1003 2900 1516 
L 2900 3500 
L 3475 3500 
L 3475 0 
L 2900 0 
L 2900 538 
Q 2691 219 2414 64 
Q 2138 -91 1772 -91 
Q 1169 -91 856 284 
Q 544 659 544 1381 
z
M 1991 3584 
L 1991 3584 
z
" transform="scale(0.015625)"/>
       <path id="DejaVuSans-4a" d="M 2906 1791 
Q 2906 2416 2648 2759 
Q 2391 3103 1925 3103 
Q 1463 3103 1205 2759 
Q 947 2416 947 1791 
Q 947 1169 1205 825 
Q 1463 481 1925 481 
Q 2391 481 2648 825 
Q 2906 1169 2906 1791 
z
M 3481 434 
Q 3481 -459 3084 -895 
Q 2688 -1331 1869 -1331 
Q 1566 -1331 1297 -1286 
Q 1028 -1241 775 -1147 
L 775 -588 
Q 1028 -725 1275 -790 
Q 1522 -856 1778 -856 
Q 2344 -856 2625 -561 
Q 2906 -266 2906 331 
L 2906 616 
Q 2728 306 2450 153 
Q 2172 0 1784 0 
Q 1141 0 747 490 
Q 353 981 353 1791 
Q 353 2603 747 3093 
Q 1141 3584 1784 3584 
Q 2172 3584 2450 3431 
Q 2728 3278 2906 2969 
L 2906 3500 
L 3481 3500 
L 3481 434 
z
" transform="scale(0.015625)"/>
       <path id="DejaVuSans-56" d="M 2834 3397 
L 2834 2853 
Q 2591 2978 2328 3040 
Q 2066 3103 1784 3103 
Q 1356 3103 1142 2972 
Q 928 2841 928 2578 
Q 928 2378 1081 2264 
Q 1234 2150 1697 2047 
L 1894 2003 
Q 2506 1872 2764 1633 
Q 3022 1394 3022 966 
Q 3022 478 2636 193 
Q 2250 -91 1575 -91 
Q 1294 -91 989 -36 
Q 684 19 347 128 
L 347 722 
Q 666 556 975 473 
Q 1284 391 1588 391 
Q 1994 391 2212 530 
Q 2431 669 2431 922 
Q 2431 1156 2273 1281 
Q 2116 1406 1581 1522 
L 1381 1569 
Q 847 1681 609 1914 
Q 372 2147 372 2553 
Q 372 3047 722 3315 
Q 1072 3584 1716 3584 
Q 2034 3584 2315 3537 
Q 2597 3491 2834 3397 
z
" transform="scale(0.015625)"/>
       <path id="DejaVuSans-50" d="M 3328 2828 
Q 3544 3216 3844 3400 
Q 4144 3584 4550 3584 
Q 5097 3584 5394 3201 
Q 5691 2819 5691 2113 
L 5691 0 
L 5113 0 
L 5113 2094 
Q 5113 2597 4934 2840 
Q 4756 3084 4391 3084 
Q 3944 3084 3684 2787 
Q 3425 2491 3425 1978 
L 3425 0 
L 2847 0 
L 2847 2094 
Q 2847 2600 2669 2842 
Q 2491 3084 2119 3084 
Q 1678 3084 1418 2786 
Q 1159 2488 1159 1978 
L 1159 0 
L 581 0 
L 581 3500 
L 1159 3500 
L 1159 2956 
Q 1356 3278 1631 3431 
Q 1906 3584 2284 3584 
Q 2666 3584 2933 3390 
Q 3200 3197 3328 2828 
z
" transform="scale(0.015625)"/>
       <path id="DejaVuSans-4f" d="M 603 4863 
L 1178 4863 
L 1178 0 
L 603 0 
L 603 4863 
z
" transform="scale(0.015625)"/>
       <path id="DejaVuSans-44" d="M 2194 1759 
Q 1497 1759 1228 1600 
Q 959 1441 959 1056 
Q 959 750 1161 570 
Q 1363 391 1709 391 
Q 2188 391 2477 730 
Q 2766 1069 2766 1631 
L 2766 1759 
L 2194 1759 
z
M 3341 1997 
L 3341 0 
L 2766 0 
L 2766 531 
Q 2569 213 2275 61 
Q 1981 -91 1556 -91 
Q 1019 -91 701 211 
Q 384 513 384 1019 
Q 384 1609 779 1909 
Q 1175 2209 1959 2209 
L 2766 2209 
L 2766 2266 
Q 2766 2663 2505 2880 
Q 2244 3097 1772 3097 
Q 1472 3097 1187 3025 
Q 903 2953 641 2809 
L 641 3341 
Q 956 3463 1253 3523 
Q 1550 3584 1831 3584 
Q 2591 3584 2966 3190 
Q 3341 2797 3341 1997 
z
" transform="scale(0.015625)"/>
       <path id="DejaVuSans-55" d="M 2631 2963 
Q 2534 3019 2420 3045 
Q 2306 3072 2169 3072 
Q 1681 3072 1420 2755 
Q 1159 2438 1159 1844 
L 1159 0 
L 581 0 
L 581 3500 
L 1159 3500 
L 1159 2956 
Q 1341 3275 1631 3429 
Q 1922 3584 2338 3584 
Q 2397 3584 2469 3576 
Q 2541 3569 2628 3553 
L 2631 2963 
z
" transform="scale(0.015625)"/>
       <path id="DejaVuSans-5c" d="M 2059 -325 
Q 1816 -950 1584 -1140 
Q 1353 -1331 966 -1331 
L 506 -1331 
L 506 -850 
L 844 -850 
Q 1081 -850 1212 -737 
Q 1344 -625 1503 -206 
L 1606 56 
L 191 3500 
L 800 3500 
L 1894 763 
L 2988 3500 
L 3597 3500 
L 2059 -325 
z
" transform="scale(0.015625)"/>
       <path id="DejaVuSans-1d" d="M 750 794 
L 1409 794 
L 1409 0 
L 750 0 
L 750 794 
z
M 750 3309 
L 1409 3309 
L 1409 2516 
L 750 2516 
L 750 3309 
z
" transform="scale(0.015625)"/>
       <path id="DejaVuSans-53" d="M 1159 525 
L 1159 -1331 
L 581 -1331 
L 581 3500 
L 1159 3500 
L 1159 2969 
Q 1341 3281 1617 3432 
Q 1894 3584 2278 3584 
Q 2916 3584 3314 3078 
Q 3713 2572 3713 1747 
Q 3713 922 3314 415 
Q 2916 -91 2278 -91 
Q 1894 -91 1617 61 
Q 1341 213 1159 525 
z
M 3116 1747 
Q 3116 2381 2855 2742 
Q 2594 3103 2138 3103 
Q 1681 3103 1420 2742 
Q 1159 2381 1159 1747 
Q 1159 1113 1420 752 
Q 1681 391 2138 391 
Q 2594 391 2855 752 
Q 3116 1113 3116 1747 
z
" transform="scale(0.015625)"/>
       <path id="DejaVuSans-48" d="M 3597 1894 
L 3597 1613 
L 953 1613 
Q 991 1019 1311 708 
Q 1631 397 2203 397 
Q 2534 397 2845 478 
Q 3156 559 3463 722 
L 3463 178 
Q 3153 47 2828 -22 
Q 2503 -91 2169 -91 
Q 1331 -91 842 396 
Q 353 884 353 1716 
Q 353 2575 817 3079 
Q 1281 3584 2069 3584 
Q 2775 3584 3186 3129 
Q 3597 2675 3597 1894 
z
M 3022 2063 
Q 3016 2534 2758 2815 
Q 2500 3097 2075 3097 
Q 1594 3097 1305 2825 
Q 1016 2553 972 2059 
L 3022 2063 
z
" transform="scale(0.015625)"/>
       <path id="DejaVuSans-10" d="M 313 2009 
L 1997 2009 
L 1997 1497 
L 313 1497 
L 313 2009 
z
" transform="scale(0.015625)"/>
       <path id="DejaVuSans-5b" d="M 3513 3500 
L 2247 1797 
L 3578 0 
L 2900 0 
L 1881 1375 
L 863 0 
L 184 0 
L 1544 1831 
L 300 3500 
L 978 3500 
L 1906 2253 
L 2834 3500 
L 3513 3500 
z
" transform="scale(0.015625)"/>
       <path id="DejaVuSans-46" d="M 3122 3366 
L 3122 2828 
Q 2878 2963 2633 3030 
Q 2388 3097 2138 3097 
Q 1578 3097 1268 2742 
Q 959 2388 959 1747 
Q 959 1106 1268 751 
Q 1578 397 2138 397 
Q 2388 397 2633 464 
Q 2878 531 3122 666 
L 3122 134 
Q 2881 22 2623 -34 
Q 2366 -91 2075 -91 
Q 1284 -91 818 406 
Q 353 903 353 1747 
Q 353 2603 823 3093 
Q 1294 3584 2113 3584 
Q 2378 3584 2631 3529 
Q 2884 3475 3122 3366 
z
" transform="scale(0.015625)"/>
       <path id="DejaVuSans-4b" d="M 3513 2113 
L 3513 0 
L 2938 0 
L 2938 2094 
Q 2938 2591 2744 2837 
Q 2550 3084 2163 3084 
Q 1697 3084 1428 2787 
Q 1159 2491 1159 1978 
L 1159 0 
L 581 0 
L 581 4863 
L 1159 4863 
L 1159 2956 
Q 1366 3272 1645 3428 
Q 1925 3584 2291 3584 
Q 2894 3584 3203 3211 
Q 3513 2838 3513 2113 
z
" transform="scale(0.015625)"/>
       <path id="DejaVuSans-52" d="M 1959 3097 
Q 1497 3097 1228 2736 
Q 959 2375 959 1747 
Q 959 1119 1226 758 
Q 1494 397 1959 397 
Q 2419 397 2687 759 
Q 2956 1122 2956 1747 
Q 2956 2369 2687 2733 
Q 2419 3097 1959 3097 
z
M 1959 3584 
Q 2709 3584 3137 3096 
Q 3566 2609 3566 1747 
Q 3566 888 3137 398 
Q 2709 -91 1959 -91 
Q 1206 -91 779 398 
Q 353 888 353 1747 
Q 353 2609 779 3096 
Q 1206 3584 1959 3584 
z
" transform="scale(0.015625)"/>
       <path id="DejaVuSans-45" d="M 3116 1747 
Q 3116 2381 2855 2742 
Q 2594 3103 2138 3103 
Q 1681 3103 1420 2742 
Q 1159 2381 1159 1747 
Q 1159 1113 1420 752 
Q 1681 391 2138 391 
Q 2594 391 2855 752 
Q 3116 1113 3116 1747 
z
M 1159 2969 
Q 1341 3281 1617 3432 
Q 1894 3584 2278 3584 
Q 2916 3584 3314 3078 
Q 3713 2572 3713 1747 
Q 3713 922 3314 415 
Q 2916 -91 2278 -91 
Q 1894 -91 1617 61 
Q 1341 213 1159 525 
L 1159 0 
L 581 0 
L 581 4863 
L 1159 4863 
L 1159 2969 
z
" transform="scale(0.015625)"/>
       <path id="DejaVuSans-4e" d="M 581 4863 
L 1159 4863 
L 1159 1991 
L 2875 3500 
L 3609 3500 
L 1753 1863 
L 3688 0 
L 2938 0 
L 1159 1709 
L 1159 0 
L 581 0 
L 581 4863 
z
" transform="scale(0.015625)"/>
       <path id="DejaVuSans-47" d="M 2906 2969 
L 2906 4863 
L 3481 4863 
L 3481 0 
L 2906 0 
L 2906 525 
Q 2725 213 2448 61 
Q 2172 -91 1784 -91 
Q 1150 -91 751 415 
Q 353 922 353 1747 
Q 353 2572 751 3078 
Q 1150 3584 1784 3584 
Q 2172 3584 2448 3432 
Q 2725 3281 2906 2969 
z
M 947 1747 
Q 947 1113 1208 752 
Q 1469 391 1925 391 
Q 2381 391 2643 752 
Q 2906 1113 2906 1747 
Q 2906 2381 2643 2742 
Q 2381 3103 1925 3103 
Q 1469 3103 1208 2742 
Q 947 2381 947 1747 
z
" transform="scale(0.015625)"/>
      </defs>
      <use xlink:href="#DejaVuSans-38"/>
      <use xlink:href="#DejaVuSans-51" transform="translate(73.1875 0)"/>
      <use xlink:href="#DejaVuSans-4c" transform="translate(136.5625 0)"/>
      <use xlink:href="#DejaVuSans-57" transform="translate(164.34375 0)"/>
      <use xlink:href="#DejaVuSans-3" transform="translate(203.546875 0)"/>
      <use xlink:href="#DejaVuSans-57" transform="translate(235.328125 0)"/>
      <use xlink:href="#DejaVuSans-58" transform="translate(274.53125 0)"/>
      <use xlink:href="#DejaVuSans-51" transform="translate(337.90625 0)"/>
      <use xlink:href="#DejaVuSans-4c" transform="translate(401.28125 0)"/>
      <use xlink:href="#DejaVuSans-51" transform="translate(429.0625 0)"/>
      <use xlink:href="#DejaVuSans-4a" transform="translate(492.4375 0)"/>
      <use xlink:href="#DejaVuSans-3" transform="translate(555.921875 0)"/>
      <use xlink:href="#DejaVuSans-56" transform="translate(587.703125 0)"/>
      <use xlink:href="#DejaVuSans-4c" transform="translate(639.796875 0)"/>
      <use xlink:href="#DejaVuSans-50" transform="translate(667.578125 0)"/>
      <use xlink:href="#DejaVuSans-4c" transform="translate(764.984375 0)"/>
      <use xlink:href="#DejaVuSans-4f" transform="translate(792.765625 0)"/>
      <use xlink:href="#DejaVuSans-44" transform="translate(820.546875 0)"/>
      <use xlink:href="#DejaVuSans-55" transform="translate(881.828125 0)"/>
      <use xlink:href="#DejaVuSans-4c" transform="translate(922.9375 0)"/>
      <use xlink:href="#DejaVuSans-57" transform="translate(950.71875 0)"/>
      <use xlink:href="#DejaVuSans-5c" transform="translate(989.921875 0)"/>
      <use xlink:href="#DejaVuSans-1d" transform="translate(1041.828125 0)"/>
      <use xlink:href="#DejaVuSans-3" transform="translate(1075.515625 0)"/>
      <use xlink:href="#DejaVuSans-53" transform="translate(1107.296875 0)"/>
      <use xlink:href="#DejaVuSans-55" transform="translate(1170.78125 0)"/>
      <use xlink:href="#DejaVuSans-48" transform="translate(1209.6875 0)"/>
      <use xlink:href="#DejaVuSans-10" transform="translate(1271.21875 0)"/>
      <use xlink:href="#DejaVuSans-48" transform="translate(1307.296875 0)"/>
      <use xlink:href="#DejaVuSans-5b" transform="translate(1367.078125 0)"/>
      <use xlink:href="#DejaVuSans-46" transform="translate(1424.515625 0)"/>
      <use xlink:href="#DejaVuSans-4b" transform="translate(1479.5 0)"/>
      <use xlink:href="#DejaVuSans-44" transform="translate(1542.875 0)"/>
      <use xlink:href="#DejaVuSans-51" transform="translate(1604.15625 0)"/>
      <use xlink:href="#DejaVuSans-4a" transform="translate(1667.53125 0)"/>
      <use xlink:href="#DejaVuSans-48" transform="translate(1731.015625 0)"/>
      <use xlink:href="#DejaVuSans-3" transform="translate(1792.546875 0)"/>
      <use xlink:href="#DejaVuSans-57" transform="translate(1824.328125 0)"/>
      <use xlink:href="#DejaVuSans-52" transform="translate(1863.53125 0)"/>
      <use xlink:href="#DejaVuSans-3" transform="translate(1924.71875 0)"/>
      <use xlink:href="#DejaVuSans-45" transform="translate(1956.5 0)"/>
      <use xlink:href="#DejaVuSans-4f" transform="translate(2019.984375 0)"/>
      <use xlink:href="#DejaVuSans-52" transform="translate(2047.765625 0)"/>
      <use xlink:href="#DejaVuSans-46" transform="translate(2108.953125 0)"/>
      <use xlink:href="#DejaVuSans-4e" transform="translate(2163.9375 0)"/>
      <use xlink:href="#DejaVuSans-3" transform="translate(2221.84375 0)"/>
      <use xlink:href="#DejaVuSans-48" transform="translate(2253.625 0)"/>
      <use xlink:href="#DejaVuSans-51" transform="translate(2315.15625 0)"/>
      <use xlink:href="#DejaVuSans-47" transform="translate(2378.53125 0)"/>
      <use xlink:href="#DejaVuSans-53" transform="translate(2442.015625 0)"/>
      <use xlink:href="#DejaVuSans-52" transform="translate(2505.5 0)"/>
      <use xlink:href="#DejaVuSans-4c" transform="translate(2566.6875 0)"/>
      <use xlink:href="#DejaVuSans-51" transform="translate(2594.46875 0)"/>
      <use xlink:href="#DejaVuSans-57" transform="translate(2657.84375 0)"/>
     </g>
    </g>
   </g>
   <g id="matplotlib.axis_2">
    <g id="ytick_1">
     <g id="line2d_10">
      <defs>
       <path id="mb2563bb51e" d="M 0 0 
L -3.5 0 
" style="stroke: #000000; stroke-width: 0.8"/>
      </defs>
      <g>
       <use xlink:href="#mb2563bb51e" x="44.103906" y="232.990125" style="stroke: #000000; stroke-width: 0.8"/>
      </g>
     </g>
     <g id="text_11">
      <!-- 0.0 -->
      <g transform="translate(21.200781 236.788953) scale(0.1 -0.1)">
       <use xlink:href="#DejaVuSans-13"/>
       <use xlink:href="#DejaVuSans-11" transform="translate(63.625 0)"/>
       <use xlink:href="#DejaVuSans-13" transform="translate(95.40625 0)"/>
      </g>
     </g>
    </g>
    <g id="ytick_2">
     <g id="line2d_11">
      <g>
       <use xlink:href="#mb2563bb51e" x="44.103906" y="190.855725" style="stroke: #000000; stroke-width: 0.8"/>
      </g>
     </g>
     <g id="text_12">
      <!-- 0.2 -->
      <g transform="translate(21.200781 194.654553) scale(0.1 -0.1)">
       <use xlink:href="#DejaVuSans-13"/>
       <use xlink:href="#DejaVuSans-11" transform="translate(63.625 0)"/>
       <use xlink:href="#DejaVuSans-15" transform="translate(95.40625 0)"/>
      </g>
     </g>
    </g>
    <g id="ytick_3">
     <g id="line2d_12">
      <g>
       <use xlink:href="#mb2563bb51e" x="44.103906" y="148.721325" style="stroke: #000000; stroke-width: 0.8"/>
      </g>
     </g>
     <g id="text_13">
      <!-- 0.4 -->
      <g transform="translate(21.200781 152.520153) scale(0.1 -0.1)">
       <defs>
        <path id="DejaVuSans-17" d="M 2419 4116 
L 825 1625 
L 2419 1625 
L 2419 4116 
z
M 2253 4666 
L 3047 4666 
L 3047 1625 
L 3713 1625 
L 3713 1100 
L 3047 1100 
L 3047 0 
L 2419 0 
L 2419 1100 
L 313 1100 
L 313 1709 
L 2253 4666 
z
" transform="scale(0.015625)"/>
       </defs>
       <use xlink:href="#DejaVuSans-13"/>
       <use xlink:href="#DejaVuSans-11" transform="translate(63.625 0)"/>
       <use xlink:href="#DejaVuSans-17" transform="translate(95.40625 0)"/>
      </g>
     </g>
    </g>
    <g id="ytick_4">
     <g id="line2d_13">
      <g>
       <use xlink:href="#mb2563bb51e" x="44.103906" y="106.586925" style="stroke: #000000; stroke-width: 0.8"/>
      </g>
     </g>
     <g id="text_14">
      <!-- 0.6 -->
      <g transform="translate(21.200781 110.385753) scale(0.1 -0.1)">
       <defs>
        <path id="DejaVuSans-19" d="M 2113 2584 
Q 1688 2584 1439 2293 
Q 1191 2003 1191 1497 
Q 1191 994 1439 701 
Q 1688 409 2113 409 
Q 2538 409 2786 701 
Q 3034 994 3034 1497 
Q 3034 2003 2786 2293 
Q 2538 2584 2113 2584 
z
M 3366 4563 
L 3366 3988 
Q 3128 4100 2886 4159 
Q 2644 4219 2406 4219 
Q 1781 4219 1451 3797 
Q 1122 3375 1075 2522 
Q 1259 2794 1537 2939 
Q 1816 3084 2150 3084 
Q 2853 3084 3261 2657 
Q 3669 2231 3669 1497 
Q 3669 778 3244 343 
Q 2819 -91 2113 -91 
Q 1303 -91 875 529 
Q 447 1150 447 2328 
Q 447 3434 972 4092 
Q 1497 4750 2381 4750 
Q 2619 4750 2861 4703 
Q 3103 4656 3366 4563 
z
" transform="scale(0.015625)"/>
       </defs>
       <use xlink:href="#DejaVuSans-13"/>
       <use xlink:href="#DejaVuSans-11" transform="translate(63.625 0)"/>
       <use xlink:href="#DejaVuSans-19" transform="translate(95.40625 0)"/>
      </g>
     </g>
    </g>
    <g id="ytick_5">
     <g id="line2d_14">
      <g>
       <use xlink:href="#mb2563bb51e" x="44.103906" y="64.452525" style="stroke: #000000; stroke-width: 0.8"/>
      </g>
     </g>
     <g id="text_15">
      <!-- 0.8 -->
      <g transform="translate(21.200781 68.251353) scale(0.1 -0.1)">
       <defs>
        <path id="DejaVuSans-1b" d="M 2034 2216 
Q 1584 2216 1326 1975 
Q 1069 1734 1069 1313 
Q 1069 891 1326 650 
Q 1584 409 2034 409 
Q 2484 409 2743 651 
Q 3003 894 3003 1313 
Q 3003 1734 2745 1975 
Q 2488 2216 2034 2216 
z
M 1403 2484 
Q 997 2584 770 2862 
Q 544 3141 544 3541 
Q 544 4100 942 4425 
Q 1341 4750 2034 4750 
Q 2731 4750 3128 4425 
Q 3525 4100 3525 3541 
Q 3525 3141 3298 2862 
Q 3072 2584 2669 2484 
Q 3125 2378 3379 2068 
Q 3634 1759 3634 1313 
Q 3634 634 3220 271 
Q 2806 -91 2034 -91 
Q 1263 -91 848 271 
Q 434 634 434 1313 
Q 434 1759 690 2068 
Q 947 2378 1403 2484 
z
M 1172 3481 
Q 1172 3119 1398 2916 
Q 1625 2713 2034 2713 
Q 2441 2713 2670 2916 
Q 2900 3119 2900 3481 
Q 2900 3844 2670 4047 
Q 2441 4250 2034 4250 
Q 1625 4250 1398 4047 
Q 1172 3844 1172 3481 
z
" transform="scale(0.015625)"/>
       </defs>
       <use xlink:href="#DejaVuSans-13"/>
       <use xlink:href="#DejaVuSans-11" transform="translate(63.625 0)"/>
       <use xlink:href="#DejaVuSans-1b" transform="translate(95.40625 0)"/>
      </g>
     </g>
    </g>
    <g id="ytick_6">
     <g id="line2d_15">
      <g>
       <use xlink:href="#mb2563bb51e" x="44.103906" y="22.318125" style="stroke: #000000; stroke-width: 0.8"/>
      </g>
     </g>
     <g id="text_16">
      <!-- 1.0 -->
      <g transform="translate(21.200781 26.116953) scale(0.1 -0.1)">
       <use xlink:href="#DejaVuSans-14"/>
       <use xlink:href="#DejaVuSans-11" transform="translate(63.625 0)"/>
       <use xlink:href="#DejaVuSans-13" transform="translate(95.40625 0)"/>
      </g>
     </g>
    </g>
    <g id="text_17">
     <!-- Cumulative fraction of CA1 units -->
     <g transform="translate(14.798438 208.958031) rotate(-90) scale(0.1 -0.1)">
      <defs>
       <path id="DejaVuSans-26" d="M 4122 4306 
L 4122 3641 
Q 3803 3938 3442 4084 
Q 3081 4231 2675 4231 
Q 1875 4231 1450 3742 
Q 1025 3253 1025 2328 
Q 1025 1406 1450 917 
Q 1875 428 2675 428 
Q 3081 428 3442 575 
Q 3803 722 4122 1019 
L 4122 359 
Q 3791 134 3420 21 
Q 3050 -91 2638 -91 
Q 1578 -91 968 557 
Q 359 1206 359 2328 
Q 359 3453 968 4101 
Q 1578 4750 2638 4750 
Q 3056 4750 3426 4639 
Q 3797 4528 4122 4306 
z
" transform="scale(0.015625)"/>
       <path id="DejaVuSans-59" d="M 191 3500 
L 800 3500 
L 1894 563 
L 2988 3500 
L 3597 3500 
L 2284 0 
L 1503 0 
L 191 3500 
z
" transform="scale(0.015625)"/>
       <path id="DejaVuSans-49" d="M 2375 4863 
L 2375 4384 
L 1825 4384 
Q 1516 4384 1395 4259 
Q 1275 4134 1275 3809 
L 1275 3500 
L 2222 3500 
L 2222 3053 
L 1275 3053 
L 1275 0 
L 697 0 
L 697 3053 
L 147 3053 
L 147 3500 
L 697 3500 
L 697 3744 
Q 697 4328 969 4595 
Q 1241 4863 1831 4863 
L 2375 4863 
z
" transform="scale(0.015625)"/>
       <path id="DejaVuSans-24" d="M 2188 4044 
L 1331 1722 
L 3047 1722 
L 2188 4044 
z
M 1831 4666 
L 2547 4666 
L 4325 0 
L 3669 0 
L 3244 1197 
L 1141 1197 
L 716 0 
L 50 0 
L 1831 4666 
z
" transform="scale(0.015625)"/>
      </defs>
      <use xlink:href="#DejaVuSans-26"/>
      <use xlink:href="#DejaVuSans-58" transform="translate(69.828125 0)"/>
      <use xlink:href="#DejaVuSans-50" transform="translate(133.203125 0)"/>
      <use xlink:href="#DejaVuSans-58" transform="translate(230.609375 0)"/>
      <use xlink:href="#DejaVuSans-4f" transform="translate(293.984375 0)"/>
      <use xlink:href="#DejaVuSans-44" transform="translate(321.765625 0)"/>
      <use xlink:href="#DejaVuSans-57" transform="translate(383.046875 0)"/>
      <use xlink:href="#DejaVuSans-4c" transform="translate(422.25 0)"/>
      <use xlink:href="#DejaVuSans-59" transform="translate(450.03125 0)"/>
      <use xlink:href="#DejaVuSans-48" transform="translate(509.21875 0)"/>
      <use xlink:href="#DejaVuSans-3" transform="translate(570.75 0)"/>
      <use xlink:href="#DejaVuSans-49" transform="translate(602.53125 0)"/>
      <use xlink:href="#DejaVuSans-55" transform="translate(637.734375 0)"/>
      <use xlink:href="#DejaVuSans-44" transform="translate(678.84375 0)"/>
      <use xlink:href="#DejaVuSans-46" transform="translate(740.125 0)"/>
      <use xlink:href="#DejaVuSans-57" transform="translate(795.109375 0)"/>
      <use xlink:href="#DejaVuSans-4c" transform="translate(834.3125 0)"/>
      <use xlink:href="#DejaVuSans-52" transform="translate(862.09375 0)"/>
      <use xlink:href="#DejaVuSans-51" transform="translate(923.28125 0)"/>
      <use xlink:href="#DejaVuSans-3" transform="translate(986.65625 0)"/>
      <use xlink:href="#DejaVuSans-52" transform="translate(1018.4375 0)"/>
      <use xlink:href="#DejaVuSans-49" transform="translate(1079.625 0)"/>
      <use xlink:href="#DejaVuSans-3" transform="translate(1114.828125 0)"/>
      <use xlink:href="#DejaVuSans-26" transform="translate(1146.609375 0)"/>
      <use xlink:href="#DejaVuSans-24" transform="translate(1216.4375 0)"/>
      <use xlink:href="#DejaVuSans-14" transform="translate(1284.84375 0)"/>
      <use xlink:href="#DejaVuSans-3" transform="translate(1348.46875 0)"/>
      <use xlink:href="#DejaVuSans-58" transform="translate(1380.25 0)"/>
      <use xlink:href="#DejaVuSans-51" transform="translate(1443.625 0)"/>
      <use xlink:href="#DejaVuSans-4c" transform="translate(1507 0)"/>
      <use xlink:href="#DejaVuSans-57" transform="translate(1534.78125 0)"/>
      <use xlink:href="#DejaVuSans-56" transform="translate(1573.984375 0)"/>
     </g>
    </g>
   </g>
   <g id="line2d_16">
    <path d="M 44.103906 232.990125 
L 96.332706 232.990125 
L 97.783506 230.883405 
L 115.193106 230.883405 
L 116.643906 228.776685 
L 118.094706 228.776685 
L 119.545506 224.563245 
L 120.996306 222.456525 
L 123.897906 222.456525 
L 126.799506 218.243085 
L 128.250306 211.922925 
L 150.012306 211.922925 
L 151.463106 209.816205 
L 158.717106 209.816205 
L 160.167906 207.709485 
L 170.323506 207.709485 
L 174.675906 201.389325 
L 176.126706 197.175885 
L 177.577506 197.175885 
L 179.028306 188.749005 
L 181.929906 188.749005 
L 183.380706 186.642285 
L 184.831506 182.428845 
L 186.282306 182.428845 
L 187.733106 180.322125 
L 189.183906 174.001965 
L 190.634706 155.041485 
L 192.085506 155.041485 
L 193.536306 150.828045 
L 194.987106 148.721325 
L 197.888706 148.721325 
L 199.339506 146.614605 
L 202.241106 146.614605 
L 203.691906 144.507885 
L 209.495106 144.507885 
L 210.945906 140.294445 
L 213.847506 140.294445 
L 218.199906 133.974285 
L 219.650706 133.974285 
L 221.101506 131.867565 
L 226.904706 131.867565 
L 228.355506 129.760845 
L 229.806306 129.760845 
L 231.257106 127.654125 
L 232.707906 127.654125 
L 234.158706 125.547405 
L 235.609506 121.333965 
L 237.060306 121.333965 
L 238.511106 119.227245 
L 244.314306 119.227245 
L 245.765106 117.120525 
L 247.215906 117.120525 
L 248.666706 115.013805 
L 251.568306 115.013805 
L 253.019106 112.907085 
L 266.076306 112.907085 
L 267.527106 110.800365 
L 273.330306 110.800365 
L 276.231906 106.586925 
L 283.485906 106.586925 
L 284.936706 100.266765 
L 287.838306 100.266765 
L 290.739906 96.053325 
L 293.641506 96.053325 
L 296.543106 91.839885 
L 297.993906 91.839885 
L 299.444706 85.519725 
L 303.797106 79.199565 
L 306.698706 70.772685 
L 308.149506 70.772685 
L 309.600306 68.665965 
L 311.051106 68.665965 
L 313.952706 64.452525 
L 315.403506 64.452525 
L 316.854306 58.132365 
L 319.755906 58.132365 
L 321.206706 49.705485 
L 324.108306 45.492045 
L 325.559106 45.492045 
L 328.460706 37.065165 
L 329.911506 37.065165 
L 331.362306 34.958445 
L 332.813106 34.958445 
L 334.263906 22.318125 
L 334.263906 22.318125 
" clip-path="url(#pd3531febb5)" style="fill: none; stroke: #6a3d9a; stroke-width: 2; stroke-linecap: square"/>
   </g>
   <g id="line2d_17">
    <path d="M 44.103906 232.990125 
L 181.929906 232.990125 
L 183.380706 230.883405 
L 186.282306 230.883405 
L 187.733106 228.776685 
L 189.183906 228.776685 
L 190.634706 205.602765 
L 194.987106 205.602765 
L 196.437906 203.496045 
L 199.339506 203.496045 
L 200.790306 201.389325 
L 219.650706 201.389325 
L 221.101506 199.282605 
L 226.904706 199.282605 
L 228.355506 197.175885 
L 229.806306 197.175885 
L 231.257106 195.069165 
L 280.584306 195.069165 
L 282.035106 192.962445 
L 284.936706 192.962445 
L 286.387506 188.749005 
L 287.838306 186.642285 
L 290.739906 186.642285 
L 292.190706 184.535565 
L 296.543106 184.535565 
L 297.993906 182.428845 
L 299.444706 178.215405 
L 300.895506 178.215405 
L 302.346306 176.108685 
L 303.797106 167.681805 
L 305.247906 161.361645 
L 306.698706 157.148205 
L 309.600306 152.934765 
L 311.051106 144.507885 
L 312.501906 138.187725 
L 313.952706 138.187725 
L 315.403506 136.081005 
L 316.854306 125.547405 
L 318.305106 119.227245 
L 319.755906 117.120525 
L 321.206706 108.693645 
L 322.657506 106.586925 
L 324.108306 102.373485 
L 325.559106 93.946605 
L 327.009906 89.733165 
L 328.460706 83.413005 
L 329.911506 72.879405 
L 331.362306 60.239085 
L 332.813106 45.492045 
L 334.263906 22.318125 
L 334.263906 22.318125 
" clip-path="url(#pd3531febb5)" style="fill: none; stroke: #666666; stroke-width: 2; stroke-linecap: square"/>
   </g>
   <g id="line2d_18">
    <path d="M 189.183906 232.990125 
L 189.183906 22.318125 
" clip-path="url(#pd3531febb5)" style="fill: none; stroke-dasharray: 1,1.65; stroke-dashoffset: 0; stroke: #8c8c8c"/>
   </g>
   <g id="patch_3">
    <path d="M 44.103906 232.990125 
L 44.103906 22.318125 
" style="fill: none; stroke: #000000; stroke-width: 0.8; stroke-linejoin: miter; stroke-linecap: square"/>
   </g>
   <g id="patch_4">
    <path d="M 44.103906 232.990125 
L 334.263906 232.990125 
" style="fill: none; stroke: #000000; stroke-width: 0.8; stroke-linejoin: miter; stroke-linecap: square"/>
   </g>
   <g id="text_18">
    <!-- Endpoint tuning heterogeneity (Error-driven) -->
    <g transform="translate(55.337031 16.318125) scale(0.12 -0.12)">
     <defs>
      <path id="DejaVuSans-28" d="M 628 4666 
L 3578 4666 
L 3578 4134 
L 1259 4134 
L 1259 2753 
L 3481 2753 
L 3481 2222 
L 1259 2222 
L 1259 531 
L 3634 531 
L 3634 0 
L 628 0 
L 628 4666 
z
" transform="scale(0.015625)"/>
      <path id="DejaVuSans-b" d="M 1984 4856 
Q 1566 4138 1362 3434 
Q 1159 2731 1159 2009 
Q 1159 1288 1364 580 
Q 1569 -128 1984 -844 
L 1484 -844 
Q 1016 -109 783 600 
Q 550 1309 550 2009 
Q 550 2706 781 3412 
Q 1013 4119 1484 4856 
L 1984 4856 
z
" transform="scale(0.015625)"/>
      <path id="DejaVuSans-c" d="M 513 4856 
L 1013 4856 
Q 1481 4119 1714 3412 
Q 1947 2706 1947 2009 
Q 1947 1309 1714 600 
Q 1481 -109 1013 -844 
L 513 -844 
Q 928 -128 1133 580 
Q 1338 1288 1338 2009 
Q 1338 2731 1133 3434 
Q 928 4138 513 4856 
z
" transform="scale(0.015625)"/>
     </defs>
     <use xlink:href="#DejaVuSans-28"/>
     <use xlink:href="#DejaVuSans-51" transform="translate(63.1875 0)"/>
     <use xlink:href="#DejaVuSans-47" transform="translate(126.5625 0)"/>
     <use xlink:href="#DejaVuSans-53" transform="translate(190.046875 0)"/>
     <use xlink:href="#DejaVuSans-52" transform="translate(253.53125 0)"/>
     <use xlink:href="#DejaVuSans-4c" transform="translate(314.71875 0)"/>
     <use xlink:href="#DejaVuSans-51" transform="translate(342.5 0)"/>
     <use xlink:href="#DejaVuSans-57" transform="translate(405.875 0)"/>
     <use xlink:href="#DejaVuSans-3" transform="translate(445.078125 0)"/>
     <use xlink:href="#DejaVuSans-57" transform="translate(476.859375 0)"/>
     <use xlink:href="#DejaVuSans-58" transform="translate(516.0625 0)"/>
     <use xlink:href="#DejaVuSans-51" transform="translate(579.4375 0)"/>
     <use xlink:href="#DejaVuSans-4c" transform="translate(642.8125 0)"/>
     <use xlink:href="#DejaVuSans-51" transform="translate(670.59375 0)"/>
     <use xlink:href="#DejaVuSans-4a" transform="translate(733.96875 0)"/>
     <use xlink:href="#DejaVuSans-3" transform="translate(797.453125 0)"/>
     <use xlink:href="#DejaVuSans-4b" transform="translate(829.234375 0)"/>
     <use xlink:href="#DejaVuSans-48" transform="translate(892.609375 0)"/>
     <use xlink:href="#DejaVuSans-57" transform="translate(954.140625 0)"/>
     <use xlink:href="#DejaVuSans-48" transform="translate(993.34375 0)"/>
     <use xlink:href="#DejaVuSans-55" transform="translate(1054.875 0)"/>
     <use xlink:href="#DejaVuSans-52" transform="translate(1093.78125 0)"/>
     <use xlink:href="#DejaVuSans-4a" transform="translate(1154.96875 0)"/>
     <use xlink:href="#DejaVuSans-48" transform="translate(1218.453125 0)"/>
     <use xlink:href="#DejaVuSans-51" transform="translate(1279.984375 0)"/>
     <use xlink:href="#DejaVuSans-48" transform="translate(1343.359375 0)"/>
     <use xlink:href="#DejaVuSans-4c" transform="translate(1404.890625 0)"/>
     <use xlink:href="#DejaVuSans-57" transform="translate(1432.671875 0)"/>
     <use xlink:href="#DejaVuSans-5c" transform="translate(1471.875 0)"/>
     <use xlink:href="#DejaVuSans-3" transform="translate(1531.0625 0)"/>
     <use xlink:href="#DejaVuSans-b" transform="translate(1562.84375 0)"/>
     <use xlink:href="#DejaVuSans-28" transform="translate(1601.859375 0)"/>
     <use xlink:href="#DejaVuSans-55" transform="translate(1665.046875 0)"/>
     <use xlink:href="#DejaVuSans-55" transform="translate(1704.40625 0)"/>
     <use xlink:href="#DejaVuSans-52" transform="translate(1743.3125 0)"/>
     <use xlink:href="#DejaVuSans-55" transform="translate(1804.5 0)"/>
     <use xlink:href="#DejaVuSans-10" transform="translate(1839.21875 0)"/>
     <use xlink:href="#DejaVuSans-47" transform="translate(1875.296875 0)"/>
     <use xlink:href="#DejaVuSans-55" transform="translate(1938.78125 0)"/>
     <use xlink:href="#DejaVuSans-4c" transform="translate(1979.890625 0)"/>
     <use xlink:href="#DejaVuSans-59" transform="translate(2007.671875 0)"/>
     <use xlink:href="#DejaVuSans-48" transform="translate(2066.859375 0)"/>
     <use xlink:href="#DejaVuSans-51" transform="translate(2128.390625 0)"/>
     <use xlink:href="#DejaVuSans-c" transform="translate(2191.765625 0)"/>
    </g>
   </g>
   <g id="legend_1">
    <g id="line2d_19">
     <path d="M 51.303906 32.796875 
L 59.303906 32.796875 
L 67.303906 32.796875 
" style="fill: none; stroke: #6a3d9a; stroke-width: 2; stroke-linecap: square"/>
    </g>
    <g id="text_19">
     <!-- Cue exchange -->
     <g transform="translate(73.703906 35.596875) scale(0.08 -0.08)">
      <use xlink:href="#DejaVuSans-26"/>
      <use xlink:href="#DejaVuSans-58" transform="translate(69.828125 0)"/>
      <use xlink:href="#DejaVuSans-48" transform="translate(133.203125 0)"/>
      <use xlink:href="#DejaVuSans-3" transform="translate(194.734375 0)"/>
      <use xlink:href="#DejaVuSans-48" transform="translate(226.515625 0)"/>
      <use xlink:href="#DejaVuSans-5b" transform="translate(286.296875 0)"/>
      <use xlink:href="#DejaVuSans-46" transform="translate(343.734375 0)"/>
      <use xlink:href="#DejaVuSans-4b" transform="translate(398.71875 0)"/>
      <use xlink:href="#DejaVuSans-44" transform="translate(462.09375 0)"/>
      <use xlink:href="#DejaVuSans-51" transform="translate(523.375 0)"/>
      <use xlink:href="#DejaVuSans-4a" transform="translate(586.75 0)"/>
      <use xlink:href="#DejaVuSans-48" transform="translate(650.234375 0)"/>
     </g>
    </g>
    <g id="line2d_20">
     <path d="M 51.303906 44.7975 
L 59.303906 44.7975 
L 67.303906 44.7975 
" style="fill: none; stroke: #666666; stroke-width: 2; stroke-linecap: square"/>
    </g>
    <g id="text_20">
     <!-- No-swap control -->
     <g transform="translate(73.703906 47.5975) scale(0.08 -0.08)">
      <defs>
       <path id="DejaVuSans-31" d="M 628 4666 
L 1478 4666 
L 3547 763 
L 3547 4666 
L 4159 4666 
L 4159 0 
L 3309 0 
L 1241 3903 
L 1241 0 
L 628 0 
L 628 4666 
z
" transform="scale(0.015625)"/>
       <path id="DejaVuSans-5a" d="M 269 3500 
L 844 3500 
L 1563 769 
L 2278 3500 
L 2956 3500 
L 3675 769 
L 4391 3500 
L 4966 3500 
L 4050 0 
L 3372 0 
L 2619 2869 
L 1863 0 
L 1184 0 
L 269 3500 
z
" transform="scale(0.015625)"/>
      </defs>
      <use xlink:href="#DejaVuSans-31"/>
      <use xlink:href="#DejaVuSans-52" transform="translate(74.8125 0)"/>
      <use xlink:href="#DejaVuSans-10" transform="translate(137.859375 0)"/>
      <use xlink:href="#DejaVuSans-56" transform="translate(173.9375 0)"/>
      <use xlink:href="#DejaVuSans-5a" transform="translate(226.03125 0)"/>
      <use xlink:href="#DejaVuSans-44" transform="translate(307.8125 0)"/>
      <use xlink:href="#DejaVuSans-53" transform="translate(369.09375 0)"/>
      <use xlink:href="#DejaVuSans-3" transform="translate(432.578125 0)"/>
      <use xlink:href="#DejaVuSans-46" transform="translate(464.359375 0)"/>
      <use xlink:href="#DejaVuSans-52" transform="translate(519.34375 0)"/>
      <use xlink:href="#DejaVuSans-51" transform="translate(580.53125 0)"/>
      <use xlink:href="#DejaVuSans-57" transform="translate(643.90625 0)"/>
      <use xlink:href="#DejaVuSans-55" transform="translate(683.109375 0)"/>
      <use xlink:href="#DejaVuSans-52" transform="translate(722.015625 0)"/>
      <use xlink:href="#DejaVuSans-4f" transform="translate(783.203125 0)"/>
     </g>
    </g>
   </g>
  </g>
 </g>
 <defs>
  <clipPath id="pd3531febb5">
   <rect x="44.103906" y="22.318125" width="290.16" height="210.672"/>
  </clipPath>
 </defs>
</svg>
